<svg width="932" height="274" viewBox="0 0 932 274" fill="none" xmlns="http://www.w3.org/2000/svg">
<rect x="8" y="8" width="916" height="258" rx="129" fill="#1971C2" stroke="#FFCB05" stroke-width="15"/>
<path d="M93.8 187.5C70.7 187.5 59.15 175 59.15 150V144C59.15 119 70.75 106.5 93.95 106.5C100.45 106.5 106.35 107.3 111.65 108.9V140.25H99.95V110.7L105.65 119.25C103.45 118.45 101.25 117.9 99.05 117.6C96.85 117.2 94.65 117 92.45 117C85.05 117 79.65 119.2 76.25 123.6C72.85 128 71.15 135.05 71.15 144.75V149.25C71.15 155.95 71.9 161.35 73.4 165.45C75 169.55 77.55 172.5 81.05 174.3C84.55 176.1 89.2 177 95 177C97.8 177 100.55 176.8 103.25 176.4C105.95 176 108.75 175.35 111.65 174.45V185.1C108.95 185.8 106.1 186.35 103.1 186.75C100.1 187.25 97 187.5 93.8 187.5ZM162.5 187.5C152.2 187.5 144.6 184.5 139.7 178.5C134.9 172.4 132.5 162.9 132.5 150V144C132.5 131.1 134.9 121.65 139.7 115.65C144.6 109.55 152.2 106.5 162.5 106.5C172.9 106.5 180.5 109.55 185.3 115.65C190.1 121.65 192.5 131.1 192.5 144V150C192.5 162.9 190.1 172.4 185.3 178.5C180.5 184.5 172.9 187.5 162.5 187.5ZM162.5 177C169 177 173.6 174.85 176.3 170.55C179.1 166.25 180.5 159.15 180.5 149.25V144.75C180.5 134.85 179.1 127.75 176.3 123.45C173.6 119.15 169 117 162.5 117C156.1 117 151.5 119.15 148.7 123.45C145.9 127.75 144.5 134.85 144.5 144.75V149.25C144.5 159.15 145.9 166.25 148.7 170.55C151.5 174.85 156.1 177 162.5 177ZM168.95 100.5H156.95L172.25 67.5H187.25L168.95 100.5ZM239.6 187.5C231.8 187.5 225.5 186.15 220.7 183.45C216 180.65 212.55 176.15 210.35 169.95C208.25 163.75 207.2 155.6 207.2 145.5C207.2 135.9 208.1 128.25 209.9 122.55C211.7 116.85 214.65 112.75 218.75 110.25C222.85 107.75 228.3 106.5 235.1 106.5C239.4 106.5 243.5 106.95 247.4 107.85C251.4 108.75 255.05 110.15 258.35 112.05L254.6 121.95C251.5 120.25 248.4 119 245.3 118.2C242.3 117.4 239.2 117 236 117C231.7 117 228.3 117.9 225.8 119.7C223.3 121.4 221.5 124.35 220.4 128.55C219.4 132.65 218.9 138.35 218.9 145.65C218.9 153.45 219.5 159.65 220.7 164.25C221.9 168.85 223.9 172.15 226.7 174.15C229.6 176.05 233.5 177 238.4 177C241.6 177 244.6 176.65 247.4 175.95C250.3 175.15 252.9 174.05 255.2 172.65L252.5 179.1V76.5H264.2V182.7C261.1 184.1 257.45 185.25 253.25 186.15C249.05 187.05 244.5 187.5 239.6 187.5ZM314 186V118.5H287V108H326V186H314ZM317.6 93.9C314.4 93.9 311.8 93 309.8 91.2C307.9 89.3 306.95 86.8 306.95 83.7C306.95 80.5 307.9 78 309.8 76.2C311.8 74.4 314.4 73.5 317.6 73.5C320.8 73.5 323.35 74.4 325.25 76.2C327.25 78 328.25 80.5 328.25 83.7C328.25 86.8 327.25 89.3 325.25 91.2C323.35 93 320.8 93.9 317.6 93.9ZM362.45 208.5C376.15 208.5 386.25 206.2 392.75 201.6C399.25 197.1 402.5 190 402.5 180.3V114L405.5 120.75C402.6 119.35 399.75 118.4 396.95 117.9C394.15 117.3 391.2 117 388.1 117C383.2 117 379.35 117.8 376.55 119.4C373.75 121 371.75 123.75 370.55 127.65C369.45 131.45 368.9 136.75 368.9 143.55C368.9 150.95 369.5 156.8 370.7 161.1C371.9 165.3 373.95 168.3 376.85 170.1C379.75 171.8 383.75 172.65 388.85 172.65C391.85 172.65 394.65 172.4 397.25 171.9C399.95 171.3 402.8 170.5 405.8 169.5L408.95 180C406.25 180.9 403.35 181.65 400.25 182.25C397.15 182.75 393.6 183 389.6 183C381.7 183 375.35 181.7 370.55 179.1C365.85 176.5 362.45 172.3 360.35 166.5C358.25 160.7 357.2 153 357.2 143.4C357.2 134.3 358.2 127.05 360.2 121.65C362.3 116.25 365.7 112.4 370.4 110.1C375.2 107.7 381.55 106.5 389.45 106.5C399.25 106.5 407.5 108.1 414.2 111.3V179.55C414.2 192.85 409.9 202.75 401.3 209.25C392.8 215.75 379.85 219 362.45 219V208.5ZM462.5 187.5C452.2 187.5 444.6 184.5 439.7 178.5C434.9 172.4 432.5 162.9 432.5 150V144C432.5 131.1 434.9 121.65 439.7 115.65C444.6 109.55 452.2 106.5 462.5 106.5C472.9 106.5 480.5 109.55 485.3 115.65C490.1 121.65 492.5 131.1 492.5 144V150C492.5 162.9 490.1 172.4 485.3 178.5C480.5 184.5 472.9 187.5 462.5 187.5ZM462.5 177C469 177 473.6 174.85 476.3 170.55C479.1 166.25 480.5 159.15 480.5 149.25V144.75C480.5 134.85 479.1 127.75 476.3 123.45C473.6 119.15 469 117 462.5 117C456.1 117 451.5 119.15 448.7 123.45C445.9 127.75 444.5 134.85 444.5 144.75V149.25C444.5 159.15 445.9 166.25 448.7 170.55C451.5 174.85 456.1 177 462.5 177ZM537.5 129.3C534 129.3 531.15 128.25 528.95 126.15C526.85 124.05 525.8 121.3 525.8 117.9C525.8 114.4 526.85 111.65 528.95 109.65C531.15 107.55 534 106.5 537.5 106.5C541 106.5 543.8 107.55 545.9 109.65C548.1 111.65 549.2 114.4 549.2 117.9C549.2 121.3 548.1 124.05 545.9 126.15C543.8 128.25 541 129.3 537.5 129.3ZM537.5 187.5C534 187.5 531.15 186.45 528.95 184.35C526.85 182.25 525.8 179.5 525.8 176.1C525.8 172.6 526.85 169.85 528.95 167.85C531.15 165.75 534 164.7 537.5 164.7C541 164.7 543.8 165.75 545.9 167.85C548.1 169.85 549.2 172.6 549.2 176.1C549.2 179.5 548.1 182.25 545.9 184.35C543.8 186.45 541 187.5 537.5 187.5ZM623.3 202.5C616.1 202.5 610.85 200.7 607.55 197.1C604.35 193.6 602.75 187.9 602.75 180V160.5C602.75 154.5 601.7 149.95 599.6 146.85C597.5 143.65 594.4 142.05 590.3 142.05H583.25V130.95H590.3C594.4 130.95 597.5 129.4 599.6 126.3C601.7 123.1 602.75 118.5 602.75 112.5V93C602.75 85 604.35 79.25 607.55 75.75C610.85 72.25 616.1 70.5 623.3 70.5H637.7V81H628.7C624.9 81 621.95 81.5 619.85 82.5C617.75 83.4 616.25 85.05 615.35 87.45C614.55 89.85 614.15 93.2 614.15 97.5V113.7C614.15 119.5 613.15 124.25 611.15 127.95C609.15 131.65 606.1 134.4 602 136.2V136.8C606.1 138.6 609.15 141.35 611.15 145.05C613.15 148.65 614.15 153.4 614.15 159.3V175.5C614.15 179.8 614.55 183.15 615.35 185.55C616.25 187.95 617.75 189.6 619.85 190.5C621.95 191.5 624.9 192 628.7 192H637.7V202.5H623.3ZM656 186V76.5H676.4L687.2 151.65H687.8L698.6 76.5H719V186H707.3V92.1H706.7L695.75 165H679.25L668.3 92.1H667.7V186H656ZM728 186L755.15 76.5H769.85L797 186H784.7L762.8 90.6H762.2L740.3 186H728ZM741.8 156V145.5H783.2V156H741.8ZM826.7 202.5H812.3V192H821.3C825.1 192 828.05 191.5 830.15 190.5C832.25 189.6 833.7 187.95 834.5 185.55C835.4 183.15 835.85 179.8 835.85 175.5V159.3C835.85 153.4 836.85 148.65 838.85 145.05C840.85 141.35 843.9 138.6 848 136.8V136.2C843.9 134.4 840.85 131.65 838.85 127.95C836.85 124.25 835.85 119.5 835.85 113.7V97.5C835.85 93.2 835.4 89.85 834.5 87.45C833.7 85.05 832.25 83.4 830.15 82.5C828.05 81.5 825.1 81 821.3 81H812.3V70.5H826.7C833.9 70.5 839.1 72.25 842.3 75.75C845.6 79.25 847.25 85 847.25 93V112.5C847.25 118.5 848.3 123.1 850.4 126.3C852.6 129.4 855.7 130.95 859.7 130.95H866.75V142.05H859.7C855.7 142.05 852.6 143.65 850.4 146.85C848.3 149.95 847.25 154.5 847.25 160.5V180C847.25 187.9 845.6 193.6 842.3 197.1C839.1 200.7 833.9 202.5 826.7 202.5Z" fill="black"/>
</svg>
